<svg width="178" height="40" viewBox="0 0 178 40" fill="none" xmlns="http://www.w3.org/2000/svg">
<path d="M38.2999 1.17135C37.4274 0.441306 36.3064 0 35.0859 0H5.12247C2.36241 0 0.104187 2.25823 0.104187 5.01828V34.9817C0.104187 36.3056 0.623668 37.5136 1.46845 38.4126C2.38511 39.3885 3.68633 40 5.12247 40H35.0859C37.846 40 40.1042 37.7418 40.1042 34.9817V5.01828C40.1042 3.47749 39.4006 2.09431 38.2999 1.17135Z" fill="#1F7DC0"/>
<path d="M32.0258 30.1538H26.5838V19.1741L21.7219 26.6763V26.7079H18.6958V26.6763L13.8011 19.1098L13.8339 30.1538H8.39319V8.25873H12.4179L20.2101 19.947L27.9695 8.25873H32.0258V30.1538Z" fill="#736868"/>
<path d="M31.7118 30.1538H26.2698V19.1741L21.4079 26.6763V26.7079H18.3818V26.6763L13.4871 19.1098L13.5199 30.1538H8.07794V8.25873H12.1027L19.8949 19.947L27.6543 8.25873H31.7105V30.1538H31.7118Z" fill="white"/>
<path d="M64.4727 26.3351C65.0016 24.4424 65.6546 22.4092 66.4315 20.2397L70.5846 8.73489H76.7709V32.79H72.3657V20.5992C72.3657 18.814 72.4359 16.7395 72.5806 14.3798H72.4194C72.2169 15.0617 71.9772 15.8303 71.7004 16.6816C71.4235 17.5329 71.1383 18.3718 70.8367 19.1983L65.8571 32.79H63.018L58.0384 19.1983C57.7367 18.3718 57.4516 17.5329 57.1747 16.6816C56.8979 15.8303 56.6582 15.0617 56.4557 14.3798H56.2945C56.4391 16.599 56.5094 18.6652 56.5094 20.5827V32.79H52.1042V8.73489H58.2533L62.4064 20.186C63.1007 22.091 63.7536 24.1407 64.3652 26.3351H64.4727Z" fill="#4D4D4D"/>
<path d="M92.2304 30.9386H92.1602C91.9205 31.1907 91.6312 31.4469 91.2965 31.7114C90.9618 31.9759 90.5775 32.2238 90.1477 32.4594C89.7179 32.695 89.2385 32.8809 88.7096 33.0255C88.1806 33.1702 87.6145 33.2404 87.0029 33.2404C86.1764 33.2404 85.4036 33.1123 84.6846 32.852C83.9655 32.5916 83.3498 32.2238 82.8332 31.7362C82.3166 31.2527 81.9117 30.6618 81.6183 29.9758C81.3249 29.2857 81.1761 28.517 81.1761 27.6657C81.1761 26.7318 81.3455 25.8929 81.6885 25.1491C82.0315 24.4052 82.5067 23.7771 83.1183 23.2605C83.73 22.744 84.4614 22.3514 85.3127 22.0828C86.164 21.8141 87.1062 21.6778 88.1352 21.6778C88.8914 21.6778 89.5857 21.7274 90.2221 21.8224C90.8585 21.9175 91.4164 22.0332 91.8957 22.1654V21.4629C91.8957 21.0538 91.8255 20.6612 91.6891 20.2851C91.5527 19.9091 91.3296 19.5702 91.0238 19.2768C90.718 18.9834 90.3212 18.7479 89.8295 18.5743C89.3377 18.4007 88.7385 18.3139 88.0319 18.3139C87.1682 18.3139 86.3045 18.409 85.4449 18.6032C84.5812 18.7933 83.6473 19.0826 82.639 19.4669V16.1403C83.5151 15.7559 84.4407 15.4625 85.4243 15.26C86.4078 15.0576 87.4368 14.9501 88.5154 14.9377C89.784 14.9377 90.8957 15.0947 91.8503 15.4047C92.8049 15.7146 93.5983 16.1444 94.243 16.6899C94.8835 17.2354 95.3629 17.88 95.6811 18.6239C95.9993 19.3677 96.1563 20.1777 96.1563 21.0496V27.612C96.1563 28.7608 96.1687 29.7526 96.1935 30.5791C96.2183 31.4056 96.2431 32.1412 96.2637 32.79H92.4164L92.2346 30.9386H92.2304ZM91.8875 25.3639C91.4783 25.2689 91.0114 25.1821 90.4865 25.1036C89.9576 25.0251 89.4245 24.9879 88.8873 24.9879C87.8459 24.9879 87.0194 25.1945 86.4161 25.6078C85.8127 26.021 85.5069 26.6533 85.5069 27.5046C85.5069 27.9013 85.5772 28.2443 85.7135 28.5377C85.8499 28.8311 86.0359 29.0749 86.2714 29.265C86.507 29.4551 86.7756 29.5997 87.0897 29.6948C87.3996 29.7898 87.7302 29.8394 88.0773 29.8394C88.5071 29.8394 88.9162 29.7816 89.3005 29.67C89.6848 29.5543 90.0361 29.4138 90.3626 29.2402C90.6849 29.0666 90.9783 28.8724 91.2345 28.6575C91.4907 28.4426 91.7098 28.2319 91.8916 28.0294V25.3681L91.8875 25.3639Z" fill="#4D4D4D"/>
<path d="M104.851 17.7974H104.921C105.173 17.4379 105.492 17.0825 105.876 16.7353C106.26 16.3882 106.698 16.0824 107.19 15.8179C107.682 15.5535 108.223 15.3427 108.818 15.1815C109.413 15.0204 110.041 14.9377 110.715 14.9377C111.351 14.9377 111.963 15.008 112.558 15.1526C113.153 15.2972 113.695 15.5204 114.186 15.8262C114.678 16.132 115.112 16.5287 115.488 17.0122C115.864 17.4957 116.162 18.0743 116.376 18.7479C116.496 19.1198 116.579 19.5248 116.62 19.9628C116.662 20.4008 116.682 20.905 116.682 21.4835V32.79H112.422V22.1489C112.422 21.6819 112.405 21.2811 112.368 20.9422C112.331 20.6075 112.265 20.3141 112.17 20.062C111.955 19.5124 111.628 19.1156 111.19 18.876C110.752 18.6363 110.223 18.5164 109.599 18.5164C108.773 18.5164 107.979 18.7107 107.219 19.0991C106.459 19.4876 105.785 20.0537 105.198 20.7976V32.79H100.938V15.3675H104.463L104.859 17.7933L104.851 17.7974Z" fill="#4D4D4D"/>
<path d="M131.601 30.9386H131.53C131.291 31.1907 131.001 31.4469 130.667 31.7114C130.332 31.9759 129.948 32.2238 129.518 32.4594C129.088 32.695 128.609 32.8809 128.08 33.0255C127.551 33.1702 126.985 33.2404 126.373 33.2404C125.546 33.2404 124.774 33.1123 124.055 32.852C123.336 32.5916 122.72 32.2238 122.203 31.7362C121.687 31.2486 121.282 30.6618 120.988 29.9758C120.695 29.2857 120.546 28.517 120.546 27.6657C120.546 26.7318 120.716 25.8929 121.059 25.1491C121.402 24.4052 121.877 23.7771 122.488 23.2605C123.1 22.744 123.831 22.3514 124.683 22.0828C125.534 21.8141 126.472 21.6778 127.505 21.6778C128.261 21.6778 128.956 21.7274 129.592 21.8224C130.229 21.9175 130.786 22.0332 131.266 22.1654V21.4629C131.266 21.0538 131.196 20.6612 131.059 20.2851C130.923 19.9091 130.7 19.5702 130.394 19.2768C130.088 18.9834 129.691 18.7479 129.2 18.5743C128.708 18.4007 128.109 18.3139 127.402 18.3139C126.538 18.3139 125.675 18.409 124.815 18.6032C123.951 18.7933 123.017 19.0826 122.009 19.4669V16.1403C122.885 15.7559 123.811 15.4625 124.794 15.26C125.778 15.0576 126.807 14.9501 127.885 14.9377C129.154 14.9377 130.266 15.0947 131.22 15.4047C132.175 15.7146 132.968 16.1444 133.613 16.6899C134.254 17.2354 134.733 17.88 135.051 18.6239C135.369 19.3677 135.526 20.1777 135.526 21.0496V27.612C135.526 28.7608 135.539 29.7526 135.564 30.5791C135.588 31.4056 135.613 32.1412 135.634 32.79H131.786L131.609 30.9386H131.601ZM131.258 25.3639C130.848 25.2689 130.381 25.1821 129.857 25.1036C129.332 25.0251 128.795 24.9879 128.257 24.9879C127.216 24.9879 126.389 25.1945 125.786 25.6078C125.183 26.021 124.877 26.6533 124.877 27.5046C124.877 27.9013 124.947 28.2443 125.084 28.5377C125.22 28.8311 125.406 29.0749 125.641 29.265C125.877 29.4551 126.146 29.5997 126.46 29.6948C126.77 29.7898 127.1 29.8394 127.447 29.8394C127.877 29.8394 128.286 29.7816 128.671 29.67C129.055 29.5543 129.406 29.4138 129.733 29.2402C130.055 29.0666 130.348 28.8724 130.605 28.6575C130.861 28.4426 131.08 28.2319 131.262 28.0294V25.3681L131.258 25.3639Z" fill="#4D4D4D"/>
<path d="M150.945 32.7693C150.465 32.914 149.895 33.0256 149.225 33.1123C148.56 33.195 147.94 33.2363 147.366 33.2363C145.903 33.2363 144.709 33.0007 143.779 32.5255C142.849 32.0503 142.192 31.3726 141.812 30.4841C141.535 29.8477 141.399 28.9881 141.399 27.8972V18.8718H138.142V15.3675H141.399V10.4953H145.659V15.3675H150.693V18.8718H145.659V27.3393C145.659 28.0087 145.762 28.5088 145.965 28.8311C146.324 29.3807 147.035 29.6576 148.106 29.6576C148.597 29.6576 149.085 29.6204 149.573 29.5419C150.056 29.4634 150.515 29.3642 150.949 29.2443V32.7693H150.945Z" fill="#4D4D4D"/>
<path d="M164.52 30.9386H164.449C164.21 31.1907 163.921 31.4469 163.586 31.7114C163.251 31.9759 162.867 32.2238 162.437 32.4594C162.007 32.695 161.528 32.8809 160.999 33.0255C160.47 33.1702 159.904 33.2404 159.292 33.2404C158.466 33.2404 157.693 33.1123 156.974 32.852C156.255 32.5916 155.639 32.2238 155.123 31.7362C154.606 31.2486 154.201 30.6618 153.908 29.9758C153.614 29.2857 153.465 28.517 153.465 27.6657C153.465 26.7318 153.635 25.8929 153.978 25.1491C154.321 24.4052 154.796 23.7771 155.408 23.2605C156.019 22.744 156.751 22.3514 157.602 22.0828C158.453 21.8141 159.391 21.6778 160.424 21.6778C161.181 21.6778 161.875 21.7274 162.511 21.8224C163.148 21.9175 163.706 22.0332 164.185 22.1654V21.4629C164.185 21.0538 164.115 20.6612 163.978 20.2851C163.842 19.9091 163.619 19.5702 163.313 19.2768C163.007 18.9834 162.611 18.7479 162.119 18.5743C161.627 18.4007 161.028 18.3139 160.321 18.3139C159.457 18.3139 158.594 18.409 157.734 18.6032C156.871 18.7933 155.937 19.0826 154.928 19.4669V16.1403C155.804 15.7559 156.73 15.4625 157.714 15.26C158.697 15.0576 159.726 14.9501 160.805 14.9377C162.073 14.9377 163.185 15.0947 164.14 15.4047C165.094 15.7146 165.888 16.1444 166.532 16.6899C167.173 17.2354 167.652 17.88 167.97 18.6239C168.289 19.3677 168.446 20.1777 168.446 21.0496V27.612C168.446 28.7608 168.458 29.7526 168.483 30.5791C168.508 31.4056 168.532 32.1412 168.553 32.79H164.706L164.528 30.9386H164.52ZM164.177 25.3639C163.768 25.2689 163.301 25.1821 162.776 25.1036C162.251 25.0251 161.714 24.9879 161.177 24.9879C160.135 24.9879 159.309 25.1945 158.705 25.6078C158.102 26.021 157.796 26.6533 157.796 27.5046C157.796 27.9013 157.866 28.2443 158.003 28.5377C158.139 28.8311 158.325 29.0749 158.561 29.265C158.796 29.4551 159.065 29.5997 159.379 29.6948C159.689 29.7898 160.019 29.8394 160.367 29.8394C160.796 29.8394 161.206 29.7816 161.59 29.67C161.974 29.5543 162.325 29.4138 162.652 29.2402C162.974 29.0666 163.268 28.8724 163.524 28.6575C163.78 28.4426 163.999 28.2319 164.181 28.0294V25.3681L164.177 25.3639Z" fill="#4D4D4D"/>
<path d="M173.4 32.79V6.75957H177.661V32.79H173.4Z" fill="#4D4D4D"/>
</svg>
